<mxfile host="65bd71144e">
    <diagram id="kMEcB6WsWlkI5P3OoTt9" name="App">
        <mxGraphModel dx="396" dy="2509" grid="1" gridSize="10" guides="1" tooltips="1" connect="1" arrows="1" fold="1" page="1" pageScale="1" pageWidth="827" pageHeight="1169" math="0" shadow="0">
            <root>
                <mxCell id="0"/>
                <mxCell id="1" parent="0"/>
                <mxCell id="9" value="&lt;h1 style=&quot;text-align: left&quot;&gt;&lt;span style=&quot;font-weight: normal&quot;&gt;&lt;font style=&quot;font-size: 24px ; line-height: 1&quot; color=&quot;#66cc00&quot;&gt;App.js&lt;/font&gt;&lt;/span&gt;&lt;br&gt;&lt;/h1&gt;" style="shape=ext;double=1;rounded=1;whiteSpace=wrap;html=1;fontStyle=1;gradientColor=none;fillColor=none;align=right;shadow=0;glass=0;sketch=0;" parent="1" vertex="1">
                    <mxGeometry x="230" y="-900" width="300" height="320" as="geometry"/>
                </mxCell>
                <mxCell id="4" style="edgeStyle=none;html=1;exitX=0.5;exitY=1;exitDx=0;exitDy=0;entryX=0.5;entryY=0;entryDx=0;entryDy=0;" parent="1" source="2" target="3" edge="1">
                    <mxGeometry relative="1" as="geometry"/>
                </mxCell>
                <mxCell id="2" value="App.tsx" style="whiteSpace=wrap;html=1;fillColor=#60a917;fontColor=#ffffff;strokeColor=#2D7600;" parent="1" vertex="1">
                    <mxGeometry x="320" y="-1110" width="120" height="60" as="geometry"/>
                </mxCell>
                <mxCell id="6" style="edgeStyle=none;html=1;exitX=0.5;exitY=1;exitDx=0;exitDy=0;shadow=1;" parent="1" source="3" edge="1">
                    <mxGeometry relative="1" as="geometry">
                        <mxPoint x="380" y="-900" as="targetPoint"/>
                    </mxGeometry>
                </mxCell>
                <mxCell id="3" value="BrowserRouter" style="whiteSpace=wrap;html=1;fillColor=#d80073;fontColor=#ffffff;strokeColor=#A50040;" parent="1" vertex="1">
                    <mxGeometry x="320" y="-1010" width="120" height="60" as="geometry"/>
                </mxCell>
                <mxCell id="16" style="edgeStyle=none;html=1;" parent="1" source="5" edge="1">
                    <mxGeometry relative="1" as="geometry">
                        <mxPoint x="170" y="-810" as="targetPoint"/>
                    </mxGeometry>
                </mxCell>
                <mxCell id="17" style="edgeStyle=none;html=1;" parent="1" source="5" edge="1">
                    <mxGeometry relative="1" as="geometry">
                        <mxPoint x="170" y="-750" as="targetPoint"/>
                    </mxGeometry>
                </mxCell>
                <mxCell id="18" style="edgeStyle=none;html=1;entryX=1;entryY=0.5;entryDx=0;entryDy=0;" parent="1" source="5" target="12" edge="1">
                    <mxGeometry relative="1" as="geometry"/>
                </mxCell>
                <mxCell id="5" value="Routing" style="whiteSpace=wrap;html=1;fillColor=#1ba1e2;fontColor=#ffffff;strokeColor=#006EAF;" parent="1" vertex="1">
                    <mxGeometry x="320" y="-770" width="120" height="60" as="geometry"/>
                </mxCell>
                <mxCell id="7" value="Header" style="whiteSpace=wrap;html=1;fillColor=#e3c800;fontColor=#000000;strokeColor=#B09500;" parent="1" vertex="1">
                    <mxGeometry x="320" y="-870" width="120" height="60" as="geometry"/>
                </mxCell>
                <mxCell id="8" value="Footer" style="whiteSpace=wrap;html=1;fillColor=#e3c800;fontColor=#000000;strokeColor=#B09500;" parent="1" vertex="1">
                    <mxGeometry x="320" y="-670" width="120" height="60" as="geometry"/>
                </mxCell>
                <mxCell id="10" value="Profile.tsx" style="whiteSpace=wrap;html=1;fillColor=#1ba1e2;fontColor=#ffffff;strokeColor=#006EAF;" parent="1" vertex="1">
                    <mxGeometry x="50" y="-830" width="120" height="40" as="geometry"/>
                </mxCell>
                <mxCell id="11" value="Messages.tsx" style="whiteSpace=wrap;html=1;fillColor=#1ba1e2;fontColor=#ffffff;strokeColor=#006EAF;" parent="1" vertex="1">
                    <mxGeometry x="50" y="-770" width="120" height="40" as="geometry"/>
                </mxCell>
                <mxCell id="12" value="News.tsx" style="whiteSpace=wrap;html=1;fillColor=#1ba1e2;fontColor=#ffffff;strokeColor=#006EAF;" parent="1" vertex="1">
                    <mxGeometry x="50" y="-710" width="120" height="40" as="geometry"/>
                </mxCell>
                <mxCell id="HVwHfwxY7-d4gZbjyrHH-19" style="edgeStyle=none;html=1;" edge="1" parent="1" source="HVwHfwxY7-d4gZbjyrHH-18" target="2">
                    <mxGeometry relative="1" as="geometry"/>
                </mxCell>
                <mxCell id="HVwHfwxY7-d4gZbjyrHH-18" value="STORE" style="whiteSpace=wrap;html=1;fillColor=#0050ef;fontColor=#ffffff;strokeColor=#001DBC;" vertex="1" parent="1">
                    <mxGeometry x="50" y="-1150" width="120" height="60" as="geometry"/>
                </mxCell>
            </root>
        </mxGraphModel>
    </diagram>
    <diagram id="8QHx-0kge-EGdVTLJAk-" name="Store">
        <mxGraphModel dx="689" dy="-563" grid="1" gridSize="10" guides="1" tooltips="1" connect="1" arrows="1" fold="1" page="1" pageScale="1" pageWidth="827" pageHeight="1169" math="0" shadow="0">
            <root>
                <mxCell id="ccBxZoACIEO3EMQ5tICD-0"/>
                <mxCell id="ccBxZoACIEO3EMQ5tICD-1" parent="ccBxZoACIEO3EMQ5tICD-0"/>
                <mxCell id="ccBxZoACIEO3EMQ5tICD-4" value="" style="edgeStyle=none;html=1;" edge="1" parent="ccBxZoACIEO3EMQ5tICD-1" source="ccBxZoACIEO3EMQ5tICD-2" target="ccBxZoACIEO3EMQ5tICD-3">
                    <mxGeometry relative="1" as="geometry"/>
                </mxCell>
                <mxCell id="ccBxZoACIEO3EMQ5tICD-6" value="" style="edgeStyle=none;html=1;" edge="1" parent="ccBxZoACIEO3EMQ5tICD-1" source="ccBxZoACIEO3EMQ5tICD-2" target="ccBxZoACIEO3EMQ5tICD-5">
                    <mxGeometry relative="1" as="geometry"/>
                </mxCell>
                <mxCell id="ccBxZoACIEO3EMQ5tICD-8" value="" style="edgeStyle=none;html=1;" edge="1" parent="ccBxZoACIEO3EMQ5tICD-1" source="ccBxZoACIEO3EMQ5tICD-2" target="ccBxZoACIEO3EMQ5tICD-7">
                    <mxGeometry relative="1" as="geometry"/>
                </mxCell>
                <mxCell id="ccBxZoACIEO3EMQ5tICD-2" value="STORE" style="whiteSpace=wrap;html=1;fillColor=#60a917;fontColor=#ffffff;strokeColor=#2D7600;" vertex="1" parent="ccBxZoACIEO3EMQ5tICD-1">
                    <mxGeometry x="100" y="1290" width="120" height="60" as="geometry"/>
                </mxCell>
                <mxCell id="ccBxZoACIEO3EMQ5tICD-3" value="profilePage: profileReducer" style="whiteSpace=wrap;html=1;fillColor=#6a00ff;fontColor=#ffffff;strokeColor=#3700CC;" vertex="1" parent="ccBxZoACIEO3EMQ5tICD-1">
                    <mxGeometry x="350" y="1210" width="120" height="60" as="geometry"/>
                </mxCell>
                <mxCell id="ccBxZoACIEO3EMQ5tICD-5" value="messagesPage: messagesReducer" style="whiteSpace=wrap;html=1;fillColor=#6a00ff;fontColor=#ffffff;strokeColor=#3700CC;" vertex="1" parent="ccBxZoACIEO3EMQ5tICD-1">
                    <mxGeometry x="354" y="1290" width="120" height="60" as="geometry"/>
                </mxCell>
                <mxCell id="ccBxZoACIEO3EMQ5tICD-7" value="sidebar: sidebarReducer" style="whiteSpace=wrap;html=1;fillColor=#6a00ff;fontColor=#ffffff;strokeColor=#3700CC;" vertex="1" parent="ccBxZoACIEO3EMQ5tICD-1">
                    <mxGeometry x="354" y="1370" width="120" height="60" as="geometry"/>
                </mxCell>
            </root>
        </mxGraphModel>
    </diagram>
    <diagram id="07eaBIxpNFVrAcZW768n" name="Profile.tsx">
        <mxGraphModel dx="511" dy="606" grid="1" gridSize="10" guides="1" tooltips="1" connect="1" arrows="1" fold="1" page="1" pageScale="1" pageWidth="827" pageHeight="1169" math="0" shadow="0">
            <root>
                <mxCell id="yXqrRf-ClHpijMCSDyhD-0"/>
                <mxCell id="yXqrRf-ClHpijMCSDyhD-1" parent="yXqrRf-ClHpijMCSDyhD-0"/>
                <mxCell id="acdaaNcFI2SuBneCvwXT-0" value="Layout" style="whiteSpace=wrap;html=1;align=left;fillColor=none;fontStyle=1" parent="yXqrRf-ClHpijMCSDyhD-1" vertex="1">
                    <mxGeometry width="820" height="460" as="geometry"/>
                </mxCell>
                <mxCell id="lydYI4MVaYuwj9otGAWA-1" value="NewPostContainer" style="whiteSpace=wrap;html=1;align=left;verticalAlign=top;fillColor=#1ba1e2;fontColor=#ffffff;strokeColor=#006EAF;" vertex="1" parent="yXqrRf-ClHpijMCSDyhD-1">
                    <mxGeometry x="75" y="190" width="310" height="110" as="geometry"/>
                </mxCell>
                <mxCell id="acdaaNcFI2SuBneCvwXT-1" value="UserProfile.tsx" style="whiteSpace=wrap;html=1;fillColor=#76608a;strokeColor=#432D57;fontColor=#ffffff;" parent="yXqrRf-ClHpijMCSDyhD-1" vertex="1">
                    <mxGeometry x="160" y="50" width="120" height="40" as="geometry"/>
                </mxCell>
                <mxCell id="acdaaNcFI2SuBneCvwXT-2" value="NewPost.tsx" style="whiteSpace=wrap;html=1;fillColor=#647687;fontColor=#ffffff;strokeColor=#314354;" parent="yXqrRf-ClHpijMCSDyhD-1" vertex="1">
                    <mxGeometry x="250" y="225" width="120" height="50" as="geometry"/>
                </mxCell>
                <mxCell id="acdaaNcFI2SuBneCvwXT-3" value="Post.tsx" style="whiteSpace=wrap;html=1;fillColor=#6d8764;fontColor=#ffffff;strokeColor=#3A5431;" parent="yXqrRf-ClHpijMCSDyhD-1" vertex="1">
                    <mxGeometry x="170" y="350" width="120" height="40" as="geometry"/>
                </mxCell>
                <mxCell id="acdaaNcFI2SuBneCvwXT-4" value="Sidebar.tsx" style="whiteSpace=wrap;html=1;fillColor=#f0a30a;fontColor=#000000;strokeColor=#BD7000;" parent="yXqrRf-ClHpijMCSDyhD-1" vertex="1">
                    <mxGeometry x="680" y="70" width="80" height="40" as="geometry"/>
                </mxCell>
                <mxCell id="lydYI4MVaYuwj9otGAWA-3" style="edgeStyle=none;html=1;" edge="1" parent="yXqrRf-ClHpijMCSDyhD-1" source="lydYI4MVaYuwj9otGAWA-2" target="acdaaNcFI2SuBneCvwXT-2">
                    <mxGeometry relative="1" as="geometry">
                        <Array as="points"/>
                    </mxGeometry>
                </mxCell>
                <mxCell id="lydYI4MVaYuwj9otGAWA-2" value="props: onAddPost,&lt;br&gt;newPostText" style="ellipse;whiteSpace=wrap;html=1;fillColor=#008a00;fontColor=#ffffff;strokeColor=#005700;" vertex="1" parent="yXqrRf-ClHpijMCSDyhD-1">
                    <mxGeometry x="90" y="210" width="80" height="80" as="geometry"/>
                </mxCell>
            </root>
        </mxGraphModel>
    </diagram>
    <diagram id="t6DPCkPGd9jKM3VZVziB" name="Messages.tsx">
        <mxGraphModel dx="511" dy="606" grid="1" gridSize="10" guides="1" tooltips="1" connect="1" arrows="1" fold="1" page="1" pageScale="1" pageWidth="827" pageHeight="1169" math="0" shadow="0">
            <root>
                <mxCell id="kx0OLK8Mp49XDaLBCtab-0"/>
                <mxCell id="kx0OLK8Mp49XDaLBCtab-1" parent="kx0OLK8Mp49XDaLBCtab-0"/>
                <mxCell id="J6wgdgAZdhRtt-if4gg6-0" value="Layout" style="whiteSpace=wrap;html=1;align=left;fillColor=none;" parent="kx0OLK8Mp49XDaLBCtab-1" vertex="1">
                    <mxGeometry width="827" height="660" as="geometry"/>
                </mxCell>
                <mxCell id="J6wgdgAZdhRtt-if4gg6-1" value="Chat.tsx" style="whiteSpace=wrap;html=1;fillColor=#76608a;strokeColor=#432D57;fontColor=#ffffff;" parent="kx0OLK8Mp49XDaLBCtab-1" vertex="1">
                    <mxGeometry x="420" y="70" width="120" height="40" as="geometry"/>
                </mxCell>
                <mxCell id="J6wgdgAZdhRtt-if4gg6-4" value="Sidebar.tsx" style="whiteSpace=wrap;html=1;fillColor=#f0a30a;fontColor=#000000;strokeColor=#BD7000;" parent="kx0OLK8Mp49XDaLBCtab-1" vertex="1">
                    <mxGeometry x="140" y="70" width="80" height="40" as="geometry"/>
                </mxCell>
            </root>
        </mxGraphModel>
    </diagram>
    <diagram id="6H0CyYf9r8MyuUsQRNgX" name="OOP">
        <mxGraphModel dx="689" dy="606" grid="1" gridSize="10" guides="1" tooltips="1" connect="1" arrows="1" fold="1" page="1" pageScale="1" pageWidth="827" pageHeight="1169" math="0" shadow="0">
            <root>
                <mxCell id="i9pmfwGWpPN8rFauT_x9-0"/>
                <mxCell id="i9pmfwGWpPN8rFauT_x9-1" parent="i9pmfwGWpPN8rFauT_x9-0"/>
            </root>
        </mxGraphModel>
    </diagram>
</mxfile>